{"title":"Edge of Tomorrow (2014) Dual Audio WEB-DL 720p MKV (x264)","uid":11012460,"size":4305943621,"categoryP":"video","categoryS":"hd___movies","magnet":"?xt=urn:btih:c6ca1ad73a5be092cfa6a3871966b4f83d442e03&amp;dn=Edge+of+Tomorrow+%282014%29+Dual+Audio+WEB-DL+720p+MKV+%28x264%29&amp;tr=udp%3A%2F%2Ftracker.openbittorrent.com%3A80&amp;tr=udp%3A%2F%2Fopen.demonii.com%3A1337&amp;tr=udp%3A%2F%2Ftracker.coppersurfer.tk%3A6969&amp;tr=udp%3A%2F%2Fexodus.desync.com%3A6969","seeders":197,"leechers":8,"uploader":"darkj6","files":-1,"time":1410387271,"description":" ______   _______  ______    ___   _      ___  --------|\n|      | |   _   ||    _ |  |   | | |    |   ||   |----|    \n|  _    ||  |_|  ||   | ||  |   |_| |    |   ||   |___ \n| | |   ||       ||   |_||_ |      _|    |   ||    _  |\n| |_|   ||       ||    __  ||     |_  ___|   ||   | | |\n|       ||   _   ||   |  | ||    _  ||       ||   |_| |\n|______| |__| |__||___|  |_||___| |_||_______||_______|\n                      &lt;a href=&quot;\nhttps://thepiratebay.se/user/darkj6/&quot; rel=&quot;nofollow&quot; target=&quot;_NEW&quot;&gt;\nhttps://thepiratebay.se/user/darkj6/&lt;/a&gt;\n\nJoin ThePirateBay Forum:\n                                               &lt;a href=&quot;\nhttps://forum.suprbay.org/member.php?action=register&amp;referrer=908&quot; rel=&quot;nofollow&quot; target=&quot;_NEW&quot;&gt;\nhttps://forum.suprbay.org/member.php?action=register&amp;referrer=908&lt;/a&gt;\n\n\nFormat : MKV (x264)\n\nQuality : WEB-DL 720p \n\nVideo : 4192 kb / s, 1280x532 \n\nAudio : Russian / English: AC3, 384 kb / s (6 ch)\n &lt;a href=&quot;\nhttp://www.imdb.com/title/tt1631867/&quot; rel=&quot;nofollow&quot; target=&quot;_NEW&quot;&gt;\nhttp://www.imdb.com/title/tt1631867/&lt;/a&gt;\n\nFormat : Matroska\nFormat version : Version 4 / Version 2\nFile size : 4.01 GiB\nDuration : 1h 53mn\nOverall bit rate : 5 060 Kbps\nEncoded date : UTC 2014-09-10 18:46:39\nWriting application : mkvmerge v6.5.0 ('Isn't she lovely')\nbuilt on Oct 20 2013 12:50:05\nWriting library : libebml v1.3.0 + libmatroska v1.4.1\nDURATION : 01:53:27.520000000\nNUMBER_OF_FRAMES : 212735\nNUMBER_OF_BYTES : 326760960\n_STATISTICS_WRITING_APP : mkvmerge v7.1.0 ('Good Love')\n64bit built on Jul 27 2014 13:06:55\n_STATISTICS_WRITING_DATE_UTC : 2014-09-09 05:48:41\n_STATISTICS_TAGS : BPS DURATION NUMBER_OF_FRAMES NUMBER_OF_BYTES\n\nVideo\nID : 1\nFormat : AVC\nFormat/Info : Advanced Video Codec\nFormat profile : &lt;a class=&quot;__cf_email__&quot; href=&quot;/cdn-cgi/l/email-protection&quot; data-cfemail=&quot;c984a8a0a78985fae7f8&quot;&gt;[email&amp;#160;protected]&lt;/a&gt;&lt;script cf-hash='f9e31' type=&quot;text/javascript&quot;&gt;\n/* &lt;![CDATA[ */!function(){try{var t=&quot;currentScript&quot;in document?document.currentScript:function(){for(var t=document.getElementsByTagName(&quot;script&quot;),e=t.length;e--;)if(t[e].getAttribute(&quot;cf-hash&quot;))return t[e]}();if(t&amp;&amp;t.previousSibling){var e,r,n,i,c=t.previousSibling,a=c.getAttribute(&quot;data-cfemail&quot;);if(a){for(e=&quot;&quot;,r=parseInt(a.substr(0,2),16),n=2;a.length-n;n+=2)i=parseInt(a.substr(n,2),16)^r,e+=String.fromCharCode(i);e=document.createTextNode(e),c.parentNode.replaceChild(e,c)}}}catch(u){}}();/* ]]&gt; */&lt;/script&gt;\nFormat settings, CABAC : No\nFormat settings, ReFrames : 2 frames\nFormat settings, GOP : N=1\nCodec ID : V_MPEG4/ISO/AVC\nDuration : 1h 53mn\nBit rate : 4 192 Kbps\nWidth : 1 280 pixels\nHeight : 532 pixels\nDisplay aspect ratio : 2.40:1\nFrame rate : 23.976 fps\nColor space : YUV\nChroma subsampling : 4:2:0\nBit depth : 8 bits\nScan type : Progressive\nBits/(Pixel*Frame) : 0.257\nStream size : 3.32 GiB (83%)\nLanguage : English\nDefault : Yes\nForced : No\nColor primaries : BT.709-5, BT.1361, IEC 61966-2-4, SMPTE RP177\nTransfer characteristics : BT.709-5, BT.1361\nMatrix coefficients : BT.709-5, BT.1361, IEC 61966-2-4 709, SMPTE RP177\n\nAudio #1\nID : 2\nFormat : AC-3\nFormat/Info : Audio Coding 3\nMode extension : CM (complete main)\nCodec ID : A_AC3\nDuration : 1h 53mn\nBit rate mode : Constant\nBit rate : 384 Kbps\nChannel(s) : 6 channels\nChannel positions : Front: L C R, Side: L R, LFE\nSampling rate : 48.0 KHz\nBit depth : 16 bits\nCompression mode : Lossy\nStream size : 312 MiB (8%)\nLanguage : Russian\nDefault : Yes\nForced : No\n\nAudio #2\nID : 3\nFormat : AC-3\nFormat/Info : Audio Coding 3\nMode extension : CM (complete main)\nCodec ID : A_AC3\nDuration : 1h 53mn\nBit rate mode : Constant\nBit rate : 384 Kbps\nChannel(s) : 6 channels\nChannel positions : Front: L C R, Side: L R, LFE\nSampling rate : 48.0 KHz\nBit depth : 16 bits\nCompression mode : Lossy\nStream size : 312 MiB (8%)\nLanguage : English\nDefault : No\nForced : No\n\nMenu\n00:00:00.000 : en:1.\n00:10:25.000 : en:2.\n00:17:36.000 : en:3.\n00:24:46.000 : en:4.\n00:35:53.000 : en:5.\n00:46:22.000 : en:6.\n00:54:29.000 : en:7.\n01:04:53.000 : en:8.\n01:12:46.000 : en:9.\n01:23:01.000 : en:10.\n01:32:26.000 : en:11.\n01:42:45.000 : en:12.\n01:45:37.000 : en:13.\n\n\n &lt;a href=&quot;\nhttp://i.imgur.com/gOIWqkr.jpg&quot; rel=&quot;nofollow&quot; target=&quot;_NEW&quot;&gt;\nhttp://i.imgur.com/gOIWqkr.jpg&lt;/a&gt;\n &lt;a href=&quot;\nhttp://i.imgur.com/6fAyFLj.png&quot; rel=&quot;nofollow&quot; target=&quot;_NEW&quot;&gt;\nhttp://i.imgur.com/6fAyFLj.png&lt;/a&gt;\n &lt;a href=&quot;\nhttp://i.imgur.com/bZoohsr.png&quot; rel=&quot;nofollow&quot; target=&quot;_NEW&quot;&gt;\nhttp://i.imgur.com/bZoohsr.png&lt;/a&gt;","torrent":{"xt":"urn:btih:c6ca1ad73a5be092cfa6a3871966b4f83d442e03","amp;dn":"Edge+of+Tomorrow+%282014%29+Dual+Audio+WEB-DL+720p+MKV+%28x264%29","amp;tr":["udp%3A%2F%2Ftracker.openbittorrent.com%3A80","udp%3A%2F%2Fopen.demonii.com%3A1337","udp%3A%2F%2Ftracker.coppersurfer.tk%3A6969","udp%3A%2F%2Fexodus.desync.com%3A6969"],"infoHash":"c6ca1ad73a5be092cfa6a3871966b4f83d442e03","infoHashBuffer":{"type":"Buffer","data":[198,202,26,215,58,91,224,146,207,166,163,135,25,102,180,248,61,68,46,3]},"announce":[],"urlList":[]}}